M48
; DRILL file {KiCad (5.1.7)-1} date 09/27/20 11:12:24
; FORMAT={-:-/ absolute / inch / decimal}
; #@! TF.CreationDate,2020-09-27T11:12:24+02:00
; #@! TF.GenerationSoftware,Kicad,Pcbnew,(5.1.7)-1
; #@! TF.FileFunction,Plated,1,2,PTH
FMAT,2
INCH
T1C0.0160
T2C0.0315
T3C0.0394
T4C0.0400
T5C0.0433
T6C0.0598
T7C0.1260
%
G90
G05
T1
X0.59Y1.11
X0.72Y0.46
X0.78Y0.4828
X0.9168Y1.01
X0.9171Y0.8834
X0.97Y0.84
X0.97Y0.54
X1.0032Y0.7851
X1.0706Y0.4732
X1.09Y0.67
X1.13Y1.22
X1.19Y0.43
X1.1982Y0.6254
X1.31Y1.11
X1.41Y0.94
X1.5Y0.94
X1.71Y1.02
X1.86Y1.42
X1.91Y1.0
X1.98Y0.93
X1.98Y0.64
X2.16Y1.0729
X2.16Y1.01
X2.19Y0.883
X2.19Y0.82
X2.19Y0.21
X2.21Y1.91
X2.21Y1.84
X2.21Y1.77
X2.29Y0.66
X2.3Y1.39
X2.3Y1.29
X2.3Y0.21
X2.303Y1.087
X2.41Y1.53
X2.4573Y0.6575
X2.48Y1.53
X2.48Y1.2629
X2.48Y1.2
X2.48Y1.04
X2.48Y0.95
X2.482Y1.1372
X2.4825Y0.3177
X2.52Y0.87
X2.52Y0.8071
X2.52Y0.72
X2.53Y1.98
X2.53Y1.9
X2.5468Y0.9584
X2.56Y0.41
X2.5894Y1.4306
X2.6Y0.53
X2.6Y0.14
X2.62Y1.11
X2.63Y1.28
X2.66Y1.34
X2.66Y0.76
X2.67Y1.51
X2.68Y0.68
X2.6906Y0.8188
X2.7Y1.68
X2.76Y1.51
X2.8Y1.92
X2.82Y2.12
X2.86Y1.003
X2.86Y0.94
X2.88Y1.13
X2.93Y1.74
X2.9355Y0.7645
X2.95Y1.14
X2.95Y0.5
X2.96Y0.61
X3.04Y2.26
X3.12Y0.89
X3.12Y0.4
X3.17Y1.74
T2
X0.46Y2.28
X0.46Y1.98
X0.56Y2.28
X0.56Y1.98
X0.66Y2.28
X0.66Y1.98
X0.76Y2.28
X0.76Y1.98
X2.02Y2.02
X2.1184Y2.02
X0.9Y2.28
X0.9Y1.98
X1.0Y2.28
X1.0Y1.98
X1.1Y2.28
X1.1Y1.98
X1.2Y2.28
X1.2Y1.98
X1.34Y2.28
X1.34Y1.98
X1.44Y2.28
X1.44Y1.98
X1.54Y2.28
X1.54Y1.98
X1.64Y2.28
X1.64Y1.98
X1.18Y1.54
X1.2784Y1.54
X0.62Y1.54
X0.62Y1.44
X0.62Y1.34
X0.62Y1.24
X0.92Y1.54
X0.92Y1.44
X0.92Y1.34
X0.92Y1.24
X2.02Y2.62
X2.1184Y2.62
X2.02Y2.32
X2.1184Y2.32
T3
X1.5Y0.72
X1.6Y0.72
X1.7Y0.72
X2.0838Y0.52
X2.1383Y0.4082
X2.1928Y0.52
X2.2474Y0.4082
X2.3019Y0.52
X2.3564Y0.4082
X2.4109Y0.52
X2.4655Y0.4082
X2.52Y0.52
T4
X3.0Y1.61
X3.0Y1.51
X3.0Y1.41
X3.0Y1.31
X3.0Y1.21
X3.1Y1.61
X3.1Y1.51
X3.1Y1.41
X3.1Y1.31
X3.1Y1.21
T5
X2.32Y2.24
X2.32Y2.14
X2.32Y2.04
X1.16Y1.32
X1.16Y0.92
X2.32Y1.76
X2.32Y1.66
X2.32Y1.56
T6
X0.96Y2.6
X1.16Y2.6
X0.5Y0.34
X0.7Y0.34
X1.4Y2.6
X1.6Y2.6
X0.94Y0.34
X1.14Y0.34
X1.34Y0.34
X1.54Y0.34
X0.52Y2.6
X0.72Y2.6
X2.34Y2.6
X2.54Y2.6
X2.74Y2.6
T7
X1.8098Y0.4641
X2.794Y0.4641
T0
M30
