G04 #@! TF.GenerationSoftware,KiCad,Pcbnew,(5.1.7)-1*
G04 #@! TF.CreationDate,2020-09-27T11:12:09+02:00*
G04 #@! TF.ProjectId,YAPSCO,59415053-434f-42e6-9b69-6361645f7063,rev?*
G04 #@! TF.SameCoordinates,PX6a95280PY86ae840*
G04 #@! TF.FileFunction,Paste,Bot*
G04 #@! TF.FilePolarity,Positive*
%FSLAX46Y46*%
G04 Gerber Fmt 4.6, Leading zero omitted, Abs format (unit mm)*
G04 Created by KiCad (PCBNEW (5.1.7)-1) date 2020-09-27 11:12:09*
%MOMM*%
%LPD*%
G01*
G04 APERTURE LIST*
G04 APERTURE END LIST*
G36*
G01*
X54921999Y54922000D02*
X55822001Y54922000D01*
G75*
G02*
X56072000Y54672001I0J-249999D01*
G01*
X56072000Y54021999D01*
G75*
G02*
X55822001Y53772000I-249999J0D01*
G01*
X54921999Y53772000D01*
G75*
G02*
X54672000Y54021999I0J249999D01*
G01*
X54672000Y54672001D01*
G75*
G02*
X54921999Y54922000I249999J0D01*
G01*
G37*
G36*
G01*
X54921999Y56972000D02*
X55822001Y56972000D01*
G75*
G02*
X56072000Y56722001I0J-249999D01*
G01*
X56072000Y56071999D01*
G75*
G02*
X55822001Y55822000I-249999J0D01*
G01*
X54921999Y55822000D01*
G75*
G02*
X54672000Y56071999I0J249999D01*
G01*
X54672000Y56722001D01*
G75*
G02*
X54921999Y56972000I249999J0D01*
G01*
G37*
G36*
G01*
X38042000Y35617999D02*
X38042000Y36518001D01*
G75*
G02*
X38291999Y36768000I249999J0D01*
G01*
X38942001Y36768000D01*
G75*
G02*
X39192000Y36518001I0J-249999D01*
G01*
X39192000Y35617999D01*
G75*
G02*
X38942001Y35368000I-249999J0D01*
G01*
X38291999Y35368000D01*
G75*
G02*
X38042000Y35617999I0J249999D01*
G01*
G37*
G36*
G01*
X35992000Y35617999D02*
X35992000Y36518001D01*
G75*
G02*
X36241999Y36768000I249999J0D01*
G01*
X36892001Y36768000D01*
G75*
G02*
X37142000Y36518001I0J-249999D01*
G01*
X37142000Y35617999D01*
G75*
G02*
X36892001Y35368000I-249999J0D01*
G01*
X36241999Y35368000D01*
G75*
G02*
X35992000Y35617999I0J249999D01*
G01*
G37*
G36*
G01*
X30930000Y35617999D02*
X30930000Y36518001D01*
G75*
G02*
X31179999Y36768000I249999J0D01*
G01*
X31830001Y36768000D01*
G75*
G02*
X32080000Y36518001I0J-249999D01*
G01*
X32080000Y35617999D01*
G75*
G02*
X31830001Y35368000I-249999J0D01*
G01*
X31179999Y35368000D01*
G75*
G02*
X30930000Y35617999I0J249999D01*
G01*
G37*
G36*
G01*
X28880000Y35617999D02*
X28880000Y36518001D01*
G75*
G02*
X29129999Y36768000I249999J0D01*
G01*
X29780001Y36768000D01*
G75*
G02*
X30030000Y36518001I0J-249999D01*
G01*
X30030000Y35617999D01*
G75*
G02*
X29780001Y35368000I-249999J0D01*
G01*
X29129999Y35368000D01*
G75*
G02*
X28880000Y35617999I0J249999D01*
G01*
G37*
G36*
G01*
X30537999Y29531000D02*
X31438001Y29531000D01*
G75*
G02*
X31688000Y29281001I0J-249999D01*
G01*
X31688000Y28630999D01*
G75*
G02*
X31438001Y28381000I-249999J0D01*
G01*
X30537999Y28381000D01*
G75*
G02*
X30288000Y28630999I0J249999D01*
G01*
X30288000Y29281001D01*
G75*
G02*
X30537999Y29531000I249999J0D01*
G01*
G37*
G36*
G01*
X30537999Y31581000D02*
X31438001Y31581000D01*
G75*
G02*
X31688000Y31331001I0J-249999D01*
G01*
X31688000Y30680999D01*
G75*
G02*
X31438001Y30431000I-249999J0D01*
G01*
X30537999Y30431000D01*
G75*
G02*
X30288000Y30680999I0J249999D01*
G01*
X30288000Y31331001D01*
G75*
G02*
X30537999Y31581000I249999J0D01*
G01*
G37*
G36*
G01*
X14282000Y24326001D02*
X14282000Y23425999D01*
G75*
G02*
X14032001Y23176000I-249999J0D01*
G01*
X13381999Y23176000D01*
G75*
G02*
X13132000Y23425999I0J249999D01*
G01*
X13132000Y24326001D01*
G75*
G02*
X13381999Y24576000I249999J0D01*
G01*
X14032001Y24576000D01*
G75*
G02*
X14282000Y24326001I0J-249999D01*
G01*
G37*
G36*
G01*
X16332000Y24326001D02*
X16332000Y23425999D01*
G75*
G02*
X16082001Y23176000I-249999J0D01*
G01*
X15431999Y23176000D01*
G75*
G02*
X15182000Y23425999I0J249999D01*
G01*
X15182000Y24326001D01*
G75*
G02*
X15431999Y24576000I249999J0D01*
G01*
X16082001Y24576000D01*
G75*
G02*
X16332000Y24326001I0J-249999D01*
G01*
G37*
G36*
G01*
X15182000Y19869999D02*
X15182000Y20770001D01*
G75*
G02*
X15431999Y21020000I249999J0D01*
G01*
X16082001Y21020000D01*
G75*
G02*
X16332000Y20770001I0J-249999D01*
G01*
X16332000Y19869999D01*
G75*
G02*
X16082001Y19620000I-249999J0D01*
G01*
X15431999Y19620000D01*
G75*
G02*
X15182000Y19869999I0J249999D01*
G01*
G37*
G36*
G01*
X13132000Y19869999D02*
X13132000Y20770001D01*
G75*
G02*
X13381999Y21020000I249999J0D01*
G01*
X14032001Y21020000D01*
G75*
G02*
X14282000Y20770001I0J-249999D01*
G01*
X14282000Y19869999D01*
G75*
G02*
X14032001Y19620000I-249999J0D01*
G01*
X13381999Y19620000D01*
G75*
G02*
X13132000Y19869999I0J249999D01*
G01*
G37*
G36*
G01*
X19371000Y29406001D02*
X19371000Y28505999D01*
G75*
G02*
X19121001Y28256000I-249999J0D01*
G01*
X18470999Y28256000D01*
G75*
G02*
X18221000Y28505999I0J249999D01*
G01*
X18221000Y29406001D01*
G75*
G02*
X18470999Y29656000I249999J0D01*
G01*
X19121001Y29656000D01*
G75*
G02*
X19371000Y29406001I0J-249999D01*
G01*
G37*
G36*
G01*
X21421000Y29406001D02*
X21421000Y28505999D01*
G75*
G02*
X21171001Y28256000I-249999J0D01*
G01*
X20520999Y28256000D01*
G75*
G02*
X20271000Y28505999I0J249999D01*
G01*
X20271000Y29406001D01*
G75*
G02*
X20520999Y29656000I249999J0D01*
G01*
X21171001Y29656000D01*
G75*
G02*
X21421000Y29406001I0J-249999D01*
G01*
G37*
G36*
G01*
X36853500Y48377000D02*
X36853500Y47127000D01*
G75*
G02*
X36603500Y46877000I-250000J0D01*
G01*
X35678500Y46877000D01*
G75*
G02*
X35428500Y47127000I0J250000D01*
G01*
X35428500Y48377000D01*
G75*
G02*
X35678500Y48627000I250000J0D01*
G01*
X36603500Y48627000D01*
G75*
G02*
X36853500Y48377000I0J-250000D01*
G01*
G37*
G36*
G01*
X39828500Y48377000D02*
X39828500Y47127000D01*
G75*
G02*
X39578500Y46877000I-250000J0D01*
G01*
X38653500Y46877000D01*
G75*
G02*
X38403500Y47127000I0J250000D01*
G01*
X38403500Y48377000D01*
G75*
G02*
X38653500Y48627000I250000J0D01*
G01*
X39578500Y48627000D01*
G75*
G02*
X39828500Y48377000I0J-250000D01*
G01*
G37*
G36*
G01*
X25677500Y48377000D02*
X25677500Y47127000D01*
G75*
G02*
X25427500Y46877000I-250000J0D01*
G01*
X24502500Y46877000D01*
G75*
G02*
X24252500Y47127000I0J250000D01*
G01*
X24252500Y48377000D01*
G75*
G02*
X24502500Y48627000I250000J0D01*
G01*
X25427500Y48627000D01*
G75*
G02*
X25677500Y48377000I0J-250000D01*
G01*
G37*
G36*
G01*
X28652500Y48377000D02*
X28652500Y47127000D01*
G75*
G02*
X28402500Y46877000I-250000J0D01*
G01*
X27477500Y46877000D01*
G75*
G02*
X27227500Y47127000I0J250000D01*
G01*
X27227500Y48377000D01*
G75*
G02*
X27477500Y48627000I250000J0D01*
G01*
X28402500Y48627000D01*
G75*
G02*
X28652500Y48377000I0J-250000D01*
G01*
G37*
G36*
G01*
X14501500Y48377000D02*
X14501500Y47127000D01*
G75*
G02*
X14251500Y46877000I-250000J0D01*
G01*
X13326500Y46877000D01*
G75*
G02*
X13076500Y47127000I0J250000D01*
G01*
X13076500Y48377000D01*
G75*
G02*
X13326500Y48627000I250000J0D01*
G01*
X14251500Y48627000D01*
G75*
G02*
X14501500Y48377000I0J-250000D01*
G01*
G37*
G36*
G01*
X17476500Y48377000D02*
X17476500Y47127000D01*
G75*
G02*
X17226500Y46877000I-250000J0D01*
G01*
X16301500Y46877000D01*
G75*
G02*
X16051500Y47127000I0J250000D01*
G01*
X16051500Y48377000D01*
G75*
G02*
X16301500Y48627000I250000J0D01*
G01*
X17226500Y48627000D01*
G75*
G02*
X17476500Y48377000I0J-250000D01*
G01*
G37*
G36*
G01*
X19000500Y16881000D02*
X19000500Y15631000D01*
G75*
G02*
X18750500Y15381000I-250000J0D01*
G01*
X17825500Y15381000D01*
G75*
G02*
X17575500Y15631000I0J250000D01*
G01*
X17575500Y16881000D01*
G75*
G02*
X17825500Y17131000I250000J0D01*
G01*
X18750500Y17131000D01*
G75*
G02*
X19000500Y16881000I0J-250000D01*
G01*
G37*
G36*
G01*
X21975500Y16881000D02*
X21975500Y15631000D01*
G75*
G02*
X21725500Y15381000I-250000J0D01*
G01*
X20800500Y15381000D01*
G75*
G02*
X20550500Y15631000I0J250000D01*
G01*
X20550500Y16881000D01*
G75*
G02*
X20800500Y17131000I250000J0D01*
G01*
X21725500Y17131000D01*
G75*
G02*
X21975500Y16881000I0J-250000D01*
G01*
G37*
G36*
G01*
X20587000Y18171000D02*
X20587000Y19421000D01*
G75*
G02*
X20837000Y19671000I250000J0D01*
G01*
X21762000Y19671000D01*
G75*
G02*
X22012000Y19421000I0J-250000D01*
G01*
X22012000Y18171000D01*
G75*
G02*
X21762000Y17921000I-250000J0D01*
G01*
X20837000Y17921000D01*
G75*
G02*
X20587000Y18171000I0J250000D01*
G01*
G37*
G36*
G01*
X17612000Y18171000D02*
X17612000Y19421000D01*
G75*
G02*
X17862000Y19671000I250000J0D01*
G01*
X18787000Y19671000D01*
G75*
G02*
X19037000Y19421000I0J-250000D01*
G01*
X19037000Y18171000D01*
G75*
G02*
X18787000Y17921000I-250000J0D01*
G01*
X17862000Y17921000D01*
G75*
G02*
X17612000Y18171000I0J250000D01*
G01*
G37*
G36*
G01*
X19073500Y21961000D02*
X19073500Y20711000D01*
G75*
G02*
X18823500Y20461000I-250000J0D01*
G01*
X17898500Y20461000D01*
G75*
G02*
X17648500Y20711000I0J250000D01*
G01*
X17648500Y21961000D01*
G75*
G02*
X17898500Y22211000I250000J0D01*
G01*
X18823500Y22211000D01*
G75*
G02*
X19073500Y21961000I0J-250000D01*
G01*
G37*
G36*
G01*
X22048500Y21961000D02*
X22048500Y20711000D01*
G75*
G02*
X21798500Y20461000I-250000J0D01*
G01*
X20873500Y20461000D01*
G75*
G02*
X20623500Y20711000I0J250000D01*
G01*
X20623500Y21961000D01*
G75*
G02*
X20873500Y22211000I250000J0D01*
G01*
X21798500Y22211000D01*
G75*
G02*
X22048500Y21961000I0J-250000D01*
G01*
G37*
G36*
G01*
X19073500Y24501000D02*
X19073500Y23251000D01*
G75*
G02*
X18823500Y23001000I-250000J0D01*
G01*
X17898500Y23001000D01*
G75*
G02*
X17648500Y23251000I0J250000D01*
G01*
X17648500Y24501000D01*
G75*
G02*
X17898500Y24751000I250000J0D01*
G01*
X18823500Y24751000D01*
G75*
G02*
X19073500Y24501000I0J-250000D01*
G01*
G37*
G36*
G01*
X22048500Y24501000D02*
X22048500Y23251000D01*
G75*
G02*
X21798500Y23001000I-250000J0D01*
G01*
X20873500Y23001000D01*
G75*
G02*
X20623500Y23251000I0J250000D01*
G01*
X20623500Y24501000D01*
G75*
G02*
X20873500Y24751000I250000J0D01*
G01*
X21798500Y24751000D01*
G75*
G02*
X22048500Y24501000I0J-250000D01*
G01*
G37*
G36*
G01*
X19073500Y27041000D02*
X19073500Y25791000D01*
G75*
G02*
X18823500Y25541000I-250000J0D01*
G01*
X17898500Y25541000D01*
G75*
G02*
X17648500Y25791000I0J250000D01*
G01*
X17648500Y27041000D01*
G75*
G02*
X17898500Y27291000I250000J0D01*
G01*
X18823500Y27291000D01*
G75*
G02*
X19073500Y27041000I0J-250000D01*
G01*
G37*
G36*
G01*
X22048500Y27041000D02*
X22048500Y25791000D01*
G75*
G02*
X21798500Y25541000I-250000J0D01*
G01*
X20873500Y25541000D01*
G75*
G02*
X20623500Y25791000I0J250000D01*
G01*
X20623500Y27041000D01*
G75*
G02*
X20873500Y27291000I250000J0D01*
G01*
X21798500Y27291000D01*
G75*
G02*
X22048500Y27041000I0J-250000D01*
G01*
G37*
G36*
G01*
X78499000Y26426000D02*
X78499000Y27676000D01*
G75*
G02*
X78749000Y27926000I250000J0D01*
G01*
X79674000Y27926000D01*
G75*
G02*
X79924000Y27676000I0J-250000D01*
G01*
X79924000Y26426000D01*
G75*
G02*
X79674000Y26176000I-250000J0D01*
G01*
X78749000Y26176000D01*
G75*
G02*
X78499000Y26426000I0J250000D01*
G01*
G37*
G36*
G01*
X75524000Y26426000D02*
X75524000Y27676000D01*
G75*
G02*
X75774000Y27926000I250000J0D01*
G01*
X76699000Y27926000D01*
G75*
G02*
X76949000Y27676000I0J-250000D01*
G01*
X76949000Y26426000D01*
G75*
G02*
X76699000Y26176000I-250000J0D01*
G01*
X75774000Y26176000D01*
G75*
G02*
X75524000Y26426000I0J250000D01*
G01*
G37*
G36*
G01*
X76985500Y25009000D02*
X76985500Y23759000D01*
G75*
G02*
X76735500Y23509000I-250000J0D01*
G01*
X75810500Y23509000D01*
G75*
G02*
X75560500Y23759000I0J250000D01*
G01*
X75560500Y25009000D01*
G75*
G02*
X75810500Y25259000I250000J0D01*
G01*
X76735500Y25259000D01*
G75*
G02*
X76985500Y25009000I0J-250000D01*
G01*
G37*
G36*
G01*
X79960500Y25009000D02*
X79960500Y23759000D01*
G75*
G02*
X79710500Y23509000I-250000J0D01*
G01*
X78785500Y23509000D01*
G75*
G02*
X78535500Y23759000I0J250000D01*
G01*
X78535500Y25009000D01*
G75*
G02*
X78785500Y25259000I250000J0D01*
G01*
X79710500Y25259000D01*
G75*
G02*
X79960500Y25009000I0J-250000D01*
G01*
G37*
G36*
G01*
X60247500Y23759000D02*
X60247500Y25009000D01*
G75*
G02*
X60497500Y25259000I250000J0D01*
G01*
X61422500Y25259000D01*
G75*
G02*
X61672500Y25009000I0J-250000D01*
G01*
X61672500Y23759000D01*
G75*
G02*
X61422500Y23509000I-250000J0D01*
G01*
X60497500Y23509000D01*
G75*
G02*
X60247500Y23759000I0J250000D01*
G01*
G37*
G36*
G01*
X57272500Y23759000D02*
X57272500Y25009000D01*
G75*
G02*
X57522500Y25259000I250000J0D01*
G01*
X58447500Y25259000D01*
G75*
G02*
X58697500Y25009000I0J-250000D01*
G01*
X58697500Y23759000D01*
G75*
G02*
X58447500Y23509000I-250000J0D01*
G01*
X57522500Y23509000D01*
G75*
G02*
X57272500Y23759000I0J250000D01*
G01*
G37*
G36*
G01*
X60247500Y21219000D02*
X60247500Y22469000D01*
G75*
G02*
X60497500Y22719000I250000J0D01*
G01*
X61422500Y22719000D01*
G75*
G02*
X61672500Y22469000I0J-250000D01*
G01*
X61672500Y21219000D01*
G75*
G02*
X61422500Y20969000I-250000J0D01*
G01*
X60497500Y20969000D01*
G75*
G02*
X60247500Y21219000I0J250000D01*
G01*
G37*
G36*
G01*
X57272500Y21219000D02*
X57272500Y22469000D01*
G75*
G02*
X57522500Y22719000I250000J0D01*
G01*
X58447500Y22719000D01*
G75*
G02*
X58697500Y22469000I0J-250000D01*
G01*
X58697500Y21219000D01*
G75*
G02*
X58447500Y20969000I-250000J0D01*
G01*
X57522500Y20969000D01*
G75*
G02*
X57272500Y21219000I0J250000D01*
G01*
G37*
G36*
G01*
X60211000Y18679000D02*
X60211000Y19929000D01*
G75*
G02*
X60461000Y20179000I250000J0D01*
G01*
X61386000Y20179000D01*
G75*
G02*
X61636000Y19929000I0J-250000D01*
G01*
X61636000Y18679000D01*
G75*
G02*
X61386000Y18429000I-250000J0D01*
G01*
X60461000Y18429000D01*
G75*
G02*
X60211000Y18679000I0J250000D01*
G01*
G37*
G36*
G01*
X57236000Y18679000D02*
X57236000Y19929000D01*
G75*
G02*
X57486000Y20179000I250000J0D01*
G01*
X58411000Y20179000D01*
G75*
G02*
X58661000Y19929000I0J-250000D01*
G01*
X58661000Y18679000D01*
G75*
G02*
X58411000Y18429000I-250000J0D01*
G01*
X57486000Y18429000D01*
G75*
G02*
X57236000Y18679000I0J250000D01*
G01*
G37*
M02*
