G04 #@! TF.GenerationSoftware,KiCad,Pcbnew,(5.1.7)-1*
G04 #@! TF.CreationDate,2020-09-27T11:12:09+02:00*
G04 #@! TF.ProjectId,YAPSCO,59415053-434f-42e6-9b69-6361645f7063,rev?*
G04 #@! TF.SameCoordinates,PX6a95280PY86ae840*
G04 #@! TF.FileFunction,Paste,Top*
G04 #@! TF.FilePolarity,Positive*
%FSLAX46Y46*%
G04 Gerber Fmt 4.6, Leading zero omitted, Abs format (unit mm)*
G04 Created by KiCad (PCBNEW (5.1.7)-1) date 2020-09-27 11:12:09*
%MOMM*%
%LPD*%
G01*
G04 APERTURE LIST*
%ADD10R,0.600000X1.500000*%
%ADD11R,3.000000X2.800000*%
%ADD12R,0.800000X0.900000*%
%ADD13R,2.000000X0.600000*%
%ADD14R,1.500000X0.600000*%
%ADD15R,1.550000X0.600000*%
G04 APERTURE END LIST*
D10*
X27686000Y19210000D03*
X28956000Y19210000D03*
X30226000Y19210000D03*
X31496000Y19210000D03*
X32766000Y19210000D03*
X34036000Y19210000D03*
X35306000Y19210000D03*
X35306000Y13810000D03*
X34036000Y13810000D03*
X32766000Y13810000D03*
X31496000Y13810000D03*
X30226000Y13810000D03*
X28956000Y13810000D03*
X27686000Y13810000D03*
G36*
G01*
X64458001Y42106000D02*
X63557999Y42106000D01*
G75*
G02*
X63308000Y42355999I0J249999D01*
G01*
X63308000Y43006001D01*
G75*
G02*
X63557999Y43256000I249999J0D01*
G01*
X64458001Y43256000D01*
G75*
G02*
X64708000Y43006001I0J-249999D01*
G01*
X64708000Y42355999D01*
G75*
G02*
X64458001Y42106000I-249999J0D01*
G01*
G37*
G36*
G01*
X64458001Y40056000D02*
X63557999Y40056000D01*
G75*
G02*
X63308000Y40305999I0J249999D01*
G01*
X63308000Y40956001D01*
G75*
G02*
X63557999Y41206000I249999J0D01*
G01*
X64458001Y41206000D01*
G75*
G02*
X64708000Y40956001I0J-249999D01*
G01*
X64708000Y40305999D01*
G75*
G02*
X64458001Y40056000I-249999J0D01*
G01*
G37*
G36*
G01*
X73972000Y59251001D02*
X73972000Y58350999D01*
G75*
G02*
X73722001Y58101000I-249999J0D01*
G01*
X73071999Y58101000D01*
G75*
G02*
X72822000Y58350999I0J249999D01*
G01*
X72822000Y59251001D01*
G75*
G02*
X73071999Y59501000I249999J0D01*
G01*
X73722001Y59501000D01*
G75*
G02*
X73972000Y59251001I0J-249999D01*
G01*
G37*
G36*
G01*
X76022000Y59251001D02*
X76022000Y58350999D01*
G75*
G02*
X75772001Y58101000I-249999J0D01*
G01*
X75121999Y58101000D01*
G75*
G02*
X74872000Y58350999I0J249999D01*
G01*
X74872000Y59251001D01*
G75*
G02*
X75121999Y59501000I249999J0D01*
G01*
X75772001Y59501000D01*
G75*
G02*
X76022000Y59251001I0J-249999D01*
G01*
G37*
G36*
G01*
X73972000Y56838001D02*
X73972000Y55937999D01*
G75*
G02*
X73722001Y55688000I-249999J0D01*
G01*
X73071999Y55688000D01*
G75*
G02*
X72822000Y55937999I0J249999D01*
G01*
X72822000Y56838001D01*
G75*
G02*
X73071999Y57088000I249999J0D01*
G01*
X73722001Y57088000D01*
G75*
G02*
X73972000Y56838001I0J-249999D01*
G01*
G37*
G36*
G01*
X76022000Y56838001D02*
X76022000Y55937999D01*
G75*
G02*
X75772001Y55688000I-249999J0D01*
G01*
X75121999Y55688000D01*
G75*
G02*
X74872000Y55937999I0J249999D01*
G01*
X74872000Y56838001D01*
G75*
G02*
X75121999Y57088000I249999J0D01*
G01*
X75772001Y57088000D01*
G75*
G02*
X76022000Y56838001I0J-249999D01*
G01*
G37*
G36*
G01*
X73972000Y54298001D02*
X73972000Y53397999D01*
G75*
G02*
X73722001Y53148000I-249999J0D01*
G01*
X73071999Y53148000D01*
G75*
G02*
X72822000Y53397999I0J249999D01*
G01*
X72822000Y54298001D01*
G75*
G02*
X73071999Y54548000I249999J0D01*
G01*
X73722001Y54548000D01*
G75*
G02*
X73972000Y54298001I0J-249999D01*
G01*
G37*
G36*
G01*
X76022000Y54298001D02*
X76022000Y53397999D01*
G75*
G02*
X75772001Y53148000I-249999J0D01*
G01*
X75121999Y53148000D01*
G75*
G02*
X74872000Y53397999I0J249999D01*
G01*
X74872000Y54298001D01*
G75*
G02*
X75121999Y54548000I249999J0D01*
G01*
X75772001Y54548000D01*
G75*
G02*
X76022000Y54298001I0J-249999D01*
G01*
G37*
G36*
G01*
X73972000Y50742001D02*
X73972000Y49841999D01*
G75*
G02*
X73722001Y49592000I-249999J0D01*
G01*
X73071999Y49592000D01*
G75*
G02*
X72822000Y49841999I0J249999D01*
G01*
X72822000Y50742001D01*
G75*
G02*
X73071999Y50992000I249999J0D01*
G01*
X73722001Y50992000D01*
G75*
G02*
X73972000Y50742001I0J-249999D01*
G01*
G37*
G36*
G01*
X76022000Y50742001D02*
X76022000Y49841999D01*
G75*
G02*
X75772001Y49592000I-249999J0D01*
G01*
X75121999Y49592000D01*
G75*
G02*
X74872000Y49841999I0J249999D01*
G01*
X74872000Y50742001D01*
G75*
G02*
X75121999Y50992000I249999J0D01*
G01*
X75772001Y50992000D01*
G75*
G02*
X76022000Y50742001I0J-249999D01*
G01*
G37*
D11*
X47314000Y40640000D03*
X37014000Y40640000D03*
D12*
X19812000Y26400000D03*
X20762000Y24400000D03*
X18862000Y24400000D03*
G36*
G01*
X68339000Y58303000D02*
X68339000Y59553000D01*
G75*
G02*
X68589000Y59803000I250000J0D01*
G01*
X69514000Y59803000D01*
G75*
G02*
X69764000Y59553000I0J-250000D01*
G01*
X69764000Y58303000D01*
G75*
G02*
X69514000Y58053000I-250000J0D01*
G01*
X68589000Y58053000D01*
G75*
G02*
X68339000Y58303000I0J250000D01*
G01*
G37*
G36*
G01*
X65364000Y58303000D02*
X65364000Y59553000D01*
G75*
G02*
X65614000Y59803000I250000J0D01*
G01*
X66539000Y59803000D01*
G75*
G02*
X66789000Y59553000I0J-250000D01*
G01*
X66789000Y58303000D01*
G75*
G02*
X66539000Y58053000I-250000J0D01*
G01*
X65614000Y58053000D01*
G75*
G02*
X65364000Y58303000I0J250000D01*
G01*
G37*
G36*
G01*
X68375500Y55763000D02*
X68375500Y57013000D01*
G75*
G02*
X68625500Y57263000I250000J0D01*
G01*
X69550500Y57263000D01*
G75*
G02*
X69800500Y57013000I0J-250000D01*
G01*
X69800500Y55763000D01*
G75*
G02*
X69550500Y55513000I-250000J0D01*
G01*
X68625500Y55513000D01*
G75*
G02*
X68375500Y55763000I0J250000D01*
G01*
G37*
G36*
G01*
X65400500Y55763000D02*
X65400500Y57013000D01*
G75*
G02*
X65650500Y57263000I250000J0D01*
G01*
X66575500Y57263000D01*
G75*
G02*
X66825500Y57013000I0J-250000D01*
G01*
X66825500Y55763000D01*
G75*
G02*
X66575500Y55513000I-250000J0D01*
G01*
X65650500Y55513000D01*
G75*
G02*
X65400500Y55763000I0J250000D01*
G01*
G37*
G36*
G01*
X66825500Y54473000D02*
X66825500Y53223000D01*
G75*
G02*
X66575500Y52973000I-250000J0D01*
G01*
X65650500Y52973000D01*
G75*
G02*
X65400500Y53223000I0J250000D01*
G01*
X65400500Y54473000D01*
G75*
G02*
X65650500Y54723000I250000J0D01*
G01*
X66575500Y54723000D01*
G75*
G02*
X66825500Y54473000I0J-250000D01*
G01*
G37*
G36*
G01*
X69800500Y54473000D02*
X69800500Y53223000D01*
G75*
G02*
X69550500Y52973000I-250000J0D01*
G01*
X68625500Y52973000D01*
G75*
G02*
X68375500Y53223000I0J250000D01*
G01*
X68375500Y54473000D01*
G75*
G02*
X68625500Y54723000I250000J0D01*
G01*
X69550500Y54723000D01*
G75*
G02*
X69800500Y54473000I0J-250000D01*
G01*
G37*
G36*
G01*
X68375500Y49667000D02*
X68375500Y50917000D01*
G75*
G02*
X68625500Y51167000I250000J0D01*
G01*
X69550500Y51167000D01*
G75*
G02*
X69800500Y50917000I0J-250000D01*
G01*
X69800500Y49667000D01*
G75*
G02*
X69550500Y49417000I-250000J0D01*
G01*
X68625500Y49417000D01*
G75*
G02*
X68375500Y49667000I0J250000D01*
G01*
G37*
G36*
G01*
X65400500Y49667000D02*
X65400500Y50917000D01*
G75*
G02*
X65650500Y51167000I250000J0D01*
G01*
X66575500Y51167000D01*
G75*
G02*
X66825500Y50917000I0J-250000D01*
G01*
X66825500Y49667000D01*
G75*
G02*
X66575500Y49417000I-250000J0D01*
G01*
X65650500Y49417000D01*
G75*
G02*
X65400500Y49667000I0J250000D01*
G01*
G37*
G36*
G01*
X68339000Y46619000D02*
X68339000Y47869000D01*
G75*
G02*
X68589000Y48119000I250000J0D01*
G01*
X69514000Y48119000D01*
G75*
G02*
X69764000Y47869000I0J-250000D01*
G01*
X69764000Y46619000D01*
G75*
G02*
X69514000Y46369000I-250000J0D01*
G01*
X68589000Y46369000D01*
G75*
G02*
X68339000Y46619000I0J250000D01*
G01*
G37*
G36*
G01*
X65364000Y46619000D02*
X65364000Y47869000D01*
G75*
G02*
X65614000Y48119000I250000J0D01*
G01*
X66539000Y48119000D01*
G75*
G02*
X66789000Y47869000I0J-250000D01*
G01*
X66789000Y46619000D01*
G75*
G02*
X66539000Y46369000I-250000J0D01*
G01*
X65614000Y46369000D01*
G75*
G02*
X65364000Y46619000I0J250000D01*
G01*
G37*
G36*
G01*
X39927500Y59827000D02*
X39927500Y61077000D01*
G75*
G02*
X40177500Y61327000I250000J0D01*
G01*
X41102500Y61327000D01*
G75*
G02*
X41352500Y61077000I0J-250000D01*
G01*
X41352500Y59827000D01*
G75*
G02*
X41102500Y59577000I-250000J0D01*
G01*
X40177500Y59577000D01*
G75*
G02*
X39927500Y59827000I0J250000D01*
G01*
G37*
G36*
G01*
X36952500Y59827000D02*
X36952500Y61077000D01*
G75*
G02*
X37202500Y61327000I250000J0D01*
G01*
X38127500Y61327000D01*
G75*
G02*
X38377500Y61077000I0J-250000D01*
G01*
X38377500Y59827000D01*
G75*
G02*
X38127500Y59577000I-250000J0D01*
G01*
X37202500Y59577000D01*
G75*
G02*
X36952500Y59827000I0J250000D01*
G01*
G37*
G36*
G01*
X28751500Y59827000D02*
X28751500Y61077000D01*
G75*
G02*
X29001500Y61327000I250000J0D01*
G01*
X29926500Y61327000D01*
G75*
G02*
X30176500Y61077000I0J-250000D01*
G01*
X30176500Y59827000D01*
G75*
G02*
X29926500Y59577000I-250000J0D01*
G01*
X29001500Y59577000D01*
G75*
G02*
X28751500Y59827000I0J250000D01*
G01*
G37*
G36*
G01*
X25776500Y59827000D02*
X25776500Y61077000D01*
G75*
G02*
X26026500Y61327000I250000J0D01*
G01*
X26951500Y61327000D01*
G75*
G02*
X27201500Y61077000I0J-250000D01*
G01*
X27201500Y59827000D01*
G75*
G02*
X26951500Y59577000I-250000J0D01*
G01*
X26026500Y59577000D01*
G75*
G02*
X25776500Y59827000I0J250000D01*
G01*
G37*
G36*
G01*
X17539000Y59827000D02*
X17539000Y61077000D01*
G75*
G02*
X17789000Y61327000I250000J0D01*
G01*
X18714000Y61327000D01*
G75*
G02*
X18964000Y61077000I0J-250000D01*
G01*
X18964000Y59827000D01*
G75*
G02*
X18714000Y59577000I-250000J0D01*
G01*
X17789000Y59577000D01*
G75*
G02*
X17539000Y59827000I0J250000D01*
G01*
G37*
G36*
G01*
X14564000Y59827000D02*
X14564000Y61077000D01*
G75*
G02*
X14814000Y61327000I250000J0D01*
G01*
X15739000Y61327000D01*
G75*
G02*
X15989000Y61077000I0J-250000D01*
G01*
X15989000Y59827000D01*
G75*
G02*
X15739000Y59577000I-250000J0D01*
G01*
X14814000Y59577000D01*
G75*
G02*
X14564000Y59827000I0J250000D01*
G01*
G37*
G36*
G01*
X20623500Y15631000D02*
X20623500Y16881000D01*
G75*
G02*
X20873500Y17131000I250000J0D01*
G01*
X21798500Y17131000D01*
G75*
G02*
X22048500Y16881000I0J-250000D01*
G01*
X22048500Y15631000D01*
G75*
G02*
X21798500Y15381000I-250000J0D01*
G01*
X20873500Y15381000D01*
G75*
G02*
X20623500Y15631000I0J250000D01*
G01*
G37*
G36*
G01*
X17648500Y15631000D02*
X17648500Y16881000D01*
G75*
G02*
X17898500Y17131000I250000J0D01*
G01*
X18823500Y17131000D01*
G75*
G02*
X19073500Y16881000I0J-250000D01*
G01*
X19073500Y15631000D01*
G75*
G02*
X18823500Y15381000I-250000J0D01*
G01*
X17898500Y15381000D01*
G75*
G02*
X17648500Y15631000I0J250000D01*
G01*
G37*
G36*
G01*
X20623500Y18171000D02*
X20623500Y19421000D01*
G75*
G02*
X20873500Y19671000I250000J0D01*
G01*
X21798500Y19671000D01*
G75*
G02*
X22048500Y19421000I0J-250000D01*
G01*
X22048500Y18171000D01*
G75*
G02*
X21798500Y17921000I-250000J0D01*
G01*
X20873500Y17921000D01*
G75*
G02*
X20623500Y18171000I0J250000D01*
G01*
G37*
G36*
G01*
X17648500Y18171000D02*
X17648500Y19421000D01*
G75*
G02*
X17898500Y19671000I250000J0D01*
G01*
X18823500Y19671000D01*
G75*
G02*
X19073500Y19421000I0J-250000D01*
G01*
X19073500Y18171000D01*
G75*
G02*
X18823500Y17921000I-250000J0D01*
G01*
X17898500Y17921000D01*
G75*
G02*
X17648500Y18171000I0J250000D01*
G01*
G37*
G36*
G01*
X20623500Y20711000D02*
X20623500Y21961000D01*
G75*
G02*
X20873500Y22211000I250000J0D01*
G01*
X21798500Y22211000D01*
G75*
G02*
X22048500Y21961000I0J-250000D01*
G01*
X22048500Y20711000D01*
G75*
G02*
X21798500Y20461000I-250000J0D01*
G01*
X20873500Y20461000D01*
G75*
G02*
X20623500Y20711000I0J250000D01*
G01*
G37*
G36*
G01*
X17648500Y20711000D02*
X17648500Y21961000D01*
G75*
G02*
X17898500Y22211000I250000J0D01*
G01*
X18823500Y22211000D01*
G75*
G02*
X19073500Y21961000I0J-250000D01*
G01*
X19073500Y20711000D01*
G75*
G02*
X18823500Y20461000I-250000J0D01*
G01*
X17898500Y20461000D01*
G75*
G02*
X17648500Y20711000I0J250000D01*
G01*
G37*
G36*
G01*
X14999000Y15631000D02*
X14999000Y16881000D01*
G75*
G02*
X15249000Y17131000I250000J0D01*
G01*
X16174000Y17131000D01*
G75*
G02*
X16424000Y16881000I0J-250000D01*
G01*
X16424000Y15631000D01*
G75*
G02*
X16174000Y15381000I-250000J0D01*
G01*
X15249000Y15381000D01*
G75*
G02*
X14999000Y15631000I0J250000D01*
G01*
G37*
G36*
G01*
X12024000Y15631000D02*
X12024000Y16881000D01*
G75*
G02*
X12274000Y17131000I250000J0D01*
G01*
X13199000Y17131000D01*
G75*
G02*
X13449000Y16881000I0J-250000D01*
G01*
X13449000Y15631000D01*
G75*
G02*
X13199000Y15381000I-250000J0D01*
G01*
X12274000Y15381000D01*
G75*
G02*
X12024000Y15631000I0J250000D01*
G01*
G37*
G36*
G01*
X15035500Y18171000D02*
X15035500Y19421000D01*
G75*
G02*
X15285500Y19671000I250000J0D01*
G01*
X16210500Y19671000D01*
G75*
G02*
X16460500Y19421000I0J-250000D01*
G01*
X16460500Y18171000D01*
G75*
G02*
X16210500Y17921000I-250000J0D01*
G01*
X15285500Y17921000D01*
G75*
G02*
X15035500Y18171000I0J250000D01*
G01*
G37*
G36*
G01*
X12060500Y18171000D02*
X12060500Y19421000D01*
G75*
G02*
X12310500Y19671000I250000J0D01*
G01*
X13235500Y19671000D01*
G75*
G02*
X13485500Y19421000I0J-250000D01*
G01*
X13485500Y18171000D01*
G75*
G02*
X13235500Y17921000I-250000J0D01*
G01*
X12310500Y17921000D01*
G75*
G02*
X12060500Y18171000I0J250000D01*
G01*
G37*
G36*
G01*
X15035500Y20711000D02*
X15035500Y21961000D01*
G75*
G02*
X15285500Y22211000I250000J0D01*
G01*
X16210500Y22211000D01*
G75*
G02*
X16460500Y21961000I0J-250000D01*
G01*
X16460500Y20711000D01*
G75*
G02*
X16210500Y20461000I-250000J0D01*
G01*
X15285500Y20461000D01*
G75*
G02*
X15035500Y20711000I0J250000D01*
G01*
G37*
G36*
G01*
X12060500Y20711000D02*
X12060500Y21961000D01*
G75*
G02*
X12310500Y22211000I250000J0D01*
G01*
X13235500Y22211000D01*
G75*
G02*
X13485500Y21961000I0J-250000D01*
G01*
X13485500Y20711000D01*
G75*
G02*
X13235500Y20461000I-250000J0D01*
G01*
X12310500Y20461000D01*
G75*
G02*
X12060500Y20711000I0J250000D01*
G01*
G37*
G36*
G01*
X38550000Y25457999D02*
X38550000Y26358001D01*
G75*
G02*
X38799999Y26608000I249999J0D01*
G01*
X39450001Y26608000D01*
G75*
G02*
X39700000Y26358001I0J-249999D01*
G01*
X39700000Y25457999D01*
G75*
G02*
X39450001Y25208000I-249999J0D01*
G01*
X38799999Y25208000D01*
G75*
G02*
X38550000Y25457999I0J249999D01*
G01*
G37*
G36*
G01*
X36500000Y25457999D02*
X36500000Y26358001D01*
G75*
G02*
X36749999Y26608000I249999J0D01*
G01*
X37400001Y26608000D01*
G75*
G02*
X37650000Y26358001I0J-249999D01*
G01*
X37650000Y25457999D01*
G75*
G02*
X37400001Y25208000I-249999J0D01*
G01*
X36749999Y25208000D01*
G75*
G02*
X36500000Y25457999I0J249999D01*
G01*
G37*
G36*
G01*
X33586000Y26358001D02*
X33586000Y25457999D01*
G75*
G02*
X33336001Y25208000I-249999J0D01*
G01*
X32685999Y25208000D01*
G75*
G02*
X32436000Y25457999I0J249999D01*
G01*
X32436000Y26358001D01*
G75*
G02*
X32685999Y26608000I249999J0D01*
G01*
X33336001Y26608000D01*
G75*
G02*
X33586000Y26358001I0J-249999D01*
G01*
G37*
G36*
G01*
X35636000Y26358001D02*
X35636000Y25457999D01*
G75*
G02*
X35386001Y25208000I-249999J0D01*
G01*
X34735999Y25208000D01*
G75*
G02*
X34486000Y25457999I0J249999D01*
G01*
X34486000Y26358001D01*
G75*
G02*
X34735999Y26608000I249999J0D01*
G01*
X35386001Y26608000D01*
G75*
G02*
X35636000Y26358001I0J-249999D01*
G01*
G37*
G36*
G01*
X44499500Y32903000D02*
X44499500Y34153000D01*
G75*
G02*
X44749500Y34403000I250000J0D01*
G01*
X45674500Y34403000D01*
G75*
G02*
X45924500Y34153000I0J-250000D01*
G01*
X45924500Y32903000D01*
G75*
G02*
X45674500Y32653000I-250000J0D01*
G01*
X44749500Y32653000D01*
G75*
G02*
X44499500Y32903000I0J250000D01*
G01*
G37*
G36*
G01*
X41524500Y32903000D02*
X41524500Y34153000D01*
G75*
G02*
X41774500Y34403000I250000J0D01*
G01*
X42699500Y34403000D01*
G75*
G02*
X42949500Y34153000I0J-250000D01*
G01*
X42949500Y32903000D01*
G75*
G02*
X42699500Y32653000I-250000J0D01*
G01*
X41774500Y32653000D01*
G75*
G02*
X41524500Y32903000I0J250000D01*
G01*
G37*
G36*
G01*
X44499500Y30363000D02*
X44499500Y31613000D01*
G75*
G02*
X44749500Y31863000I250000J0D01*
G01*
X45674500Y31863000D01*
G75*
G02*
X45924500Y31613000I0J-250000D01*
G01*
X45924500Y30363000D01*
G75*
G02*
X45674500Y30113000I-250000J0D01*
G01*
X44749500Y30113000D01*
G75*
G02*
X44499500Y30363000I0J250000D01*
G01*
G37*
G36*
G01*
X41524500Y30363000D02*
X41524500Y31613000D01*
G75*
G02*
X41774500Y31863000I250000J0D01*
G01*
X42699500Y31863000D01*
G75*
G02*
X42949500Y31613000I0J-250000D01*
G01*
X42949500Y30363000D01*
G75*
G02*
X42699500Y30113000I-250000J0D01*
G01*
X41774500Y30113000D01*
G75*
G02*
X41524500Y30363000I0J250000D01*
G01*
G37*
G36*
G01*
X44463000Y27823000D02*
X44463000Y29073000D01*
G75*
G02*
X44713000Y29323000I250000J0D01*
G01*
X45638000Y29323000D01*
G75*
G02*
X45888000Y29073000I0J-250000D01*
G01*
X45888000Y27823000D01*
G75*
G02*
X45638000Y27573000I-250000J0D01*
G01*
X44713000Y27573000D01*
G75*
G02*
X44463000Y27823000I0J250000D01*
G01*
G37*
G36*
G01*
X41488000Y27823000D02*
X41488000Y29073000D01*
G75*
G02*
X41738000Y29323000I250000J0D01*
G01*
X42663000Y29323000D01*
G75*
G02*
X42913000Y29073000I0J-250000D01*
G01*
X42913000Y27823000D01*
G75*
G02*
X42663000Y27573000I-250000J0D01*
G01*
X41738000Y27573000D01*
G75*
G02*
X41488000Y27823000I0J250000D01*
G01*
G37*
D13*
X70232000Y35179000D03*
X70232000Y33909000D03*
X70232000Y32639000D03*
X70232000Y31369000D03*
X70232000Y30099000D03*
X70232000Y28829000D03*
X70232000Y27559000D03*
X70232000Y26289000D03*
X70232000Y25019000D03*
X70232000Y23749000D03*
X70232000Y22479000D03*
X70232000Y21209000D03*
X70232000Y19939000D03*
X70232000Y18669000D03*
X60832000Y18669000D03*
X60832000Y19939000D03*
X60832000Y21209000D03*
X60832000Y22479000D03*
X60832000Y23749000D03*
X60832000Y25019000D03*
X60832000Y26289000D03*
X60832000Y27559000D03*
X60832000Y28829000D03*
X60832000Y30099000D03*
X60832000Y31369000D03*
X60832000Y32639000D03*
X60832000Y33909000D03*
X60832000Y35179000D03*
D14*
X57564000Y26162000D03*
X57564000Y24892000D03*
X57564000Y23622000D03*
X57564000Y22352000D03*
X57564000Y21082000D03*
X57564000Y19812000D03*
X57564000Y18542000D03*
X52164000Y18542000D03*
X52164000Y19812000D03*
X52164000Y21082000D03*
X52164000Y22352000D03*
X52164000Y23622000D03*
X52164000Y24892000D03*
X52164000Y26162000D03*
D15*
X38768000Y33909000D03*
X38768000Y32639000D03*
X38768000Y31369000D03*
X38768000Y30099000D03*
X33368000Y30099000D03*
X33368000Y31369000D03*
X33368000Y32639000D03*
X33368000Y33909000D03*
M02*
